<svg xmlns="http://www.w3.org/2000/svg" width="512" height="512" viewBox="0 0 512 512">
<g>
<path d="M 233.00 511.04 C183.63,506.20 138.00,488.00 98.00,457.19 C78.52,442.19 53.22,414.00 38.60,391.00 C32.29,381.07 19.99,355.90 15.59,343.88 C10.67,330.45 5.42,309.93 2.84,294.00 C-0.32,274.51 -0.32,237.49 2.84,218.00 C7.31,190.44 14.38,168.16 26.47,143.50 C39.69,116.55 53.44,97.46 75.45,75.45 C97.46,53.44 116.55,39.69 143.50,26.47 C161.40,17.69 173.13,13.28 191.12,8.55 C214.45,2.41 228.33,0.68 254.50,0.62 C278.79,0.57 288.40,1.46 308.50,5.61 C342.47,12.63 376.29,27.40 403.77,47.21 L 412.05 53.17 L 407.24 59.34 C404.59,62.73 391.26,80.01 377.61,97.75 C363.96,115.49 352.69,130.00 352.55,130.00 C352.42,130.00 348.52,127.46 343.90,124.35 C327.87,113.56 307.86,105.14 288.00,100.82 C273.09,97.58 246.20,97.15 230.10,99.90 C163.40,111.26 111.35,163.09 100.01,229.42 C97.28,245.40 97.28,266.60 100.01,282.58 C111.35,348.91 163.38,400.71 230.10,412.11 C240.76,413.93 245.09,414.15 261.00,413.70 C287.22,412.95 302.31,409.27 325.50,398.00 C344.71,388.66 360.16,376.90 374.83,360.46 C386.54,347.33 397.50,329.32 403.85,312.75 L 406.83 305.00 L 331.41 305.00 L 256.00 305.00 L 256.00 256.00 L 256.00 207.00 L 384.11 207.00 L 512.23 207.00 L 511.72 244.25 C511.16,285.85 510.11,295.56 503.45,320.88 C498.72,338.87 494.31,350.60 485.53,368.50 C472.31,395.45 458.56,414.54 436.55,436.55 C414.54,458.56 395.45,472.31 368.50,485.53 C343.86,497.61 321.14,504.82 294.50,509.01 C279.80,511.33 246.98,512.41 233.00,511.04 Z" fill="rgba(0,0,0,1)"/>
</g>
</svg>